Coordinates
version=1
nRows=24
nColumns=24
inDegrees=yes

Units are S.I. units (second, meters, Newtons, ...)
Angles are in degrees.

endheader
time	pelvis_tilt	pelvis_list	pelvis_rotation	pelvis_tx	pelvis_ty	pelvis_tz	hip_flexion_r	hip_adduction_r	hip_rotation_r	knee_angle_r	ankle_angle_r	subtalar_angle_r	mtp_angle_r	hip_flexion_l	hip_adduction_l	hip_rotation_l	knee_angle_l	ankle_angle_l	subtalar_angle_l	mtp_angle_l	lumbar_extension	lumbar_bending	lumbar_rotation
      1.44000000	      5.75674757	     -0.86359374	     -1.24142186	      0.01974800	      0.91774335	     -0.01172041	     22.86876577	      2.18287832	     -5.81913581	    -34.42535351	     18.69067002	     -4.98982808	     34.01268551	    -20.19374059	      2.57010517	     -5.40214897	      0.01437422	     16.08564638	      3.19218205	     26.20197724	    -16.80438541	     -2.11996479	     -5.70566977
      1.44500000	      5.75554130	     -0.85242691	     -1.01090698	      0.02753607	      0.91691585	     -0.01174473	     22.82476850	      2.15068520	     -6.12322085	    -32.13456518	     18.61493486	     -4.40556413	     34.18682169	    -20.79182714	      2.48587379	     -5.48736457	      0.14988672	     16.18967287	      3.76801994	     26.47571840	    -16.80930231	     -2.10631145	     -5.96819786
      1.45000000	      5.88529320	     -0.88347883	     -0.85799540	      0.03545571	      0.91622494	     -0.01164588	     22.57004981	      2.20132740	     -6.37257556	    -29.76509863	     18.45906865	     -3.88752077	     34.70533055	    -21.55419941	      2.38894648	     -5.80888196	      0.30826318	     16.15783540	      4.45057594	     27.08749544	    -16.94568471	     -2.06718819	     -6.09785933
      1.45500000	      5.95444900	     -0.86274987	     -0.60263077	      0.04339098	      0.91541232	     -0.01167403	     22.35056365	      2.15553621	     -6.73633492	    -27.41510584	     18.31666451	     -3.22760486	     35.18031483	    -22.20600457	      2.29676587	     -5.93627301	      0.39112907	     16.17579754	      5.07458040	     27.55314010	    -17.01760572	     -2.05814599	     -6.36324467
      1.46000000	      5.97401072	     -0.79781956	     -0.29643925	      0.05133125	      0.91448921	     -0.01171231	     22.16722119	      2.05482263	     -7.13077288	    -25.11661996	     18.17444605	     -2.52904553	     35.42552837	    -22.75916228	      2.21337471	     -5.96423979	      0.39206700	     16.27278097	      5.71927208	     27.80846326	    -17.03794510	     -2.09014134	     -6.72331293
      1.46500000	      6.14478756	     -0.83057763	     -0.09142571	      0.05948842	      0.91372826	     -0.01162163	     21.74904152	      2.10291301	     -7.47755315	    -22.76828874	     17.90090719	     -1.89517565	     36.15766829	    -23.52093378	      2.07483827	     -6.27118550	      0.44530976	     16.23639655	      6.41722245	     28.41589633	    -17.20085359	     -2.03395556	     -6.87347772
      1.47000000	      6.26212425	     -0.76923327	      0.22374077	      0.06760761	      0.91287059	     -0.01163893	     21.38997985	      2.01428273	     -7.92106550	    -20.53184033	     17.65490663	     -1.14542771	     36.61541102	    -24.16441593	      1.96926603	     -6.32658232	      0.40088768	     16.25960763	      7.08863116	     28.81239729	    -17.31429551	     -2.05700968	     -7.18543815
      1.47500000	      6.38314610	     -0.73009248	      0.54044208	      0.07584395	      0.91199244	     -0.01159753	     20.99441181	      1.96738823	     -8.35424302	    -18.35093058	     17.39668671	     -0.48004718	     37.03776475	    -24.78021115	      1.82865951	     -6.45786373	      0.27843271	     16.31120975	      7.76639443	     29.21131832	    -17.42102742	     -2.05777164	     -7.51908658
      1.48000000	      6.55312986	     -0.72071101	      0.84135817	      0.08421485	      0.91114835	     -0.01152363	     20.52226127	      1.96681062	     -8.77467276	    -16.25696877	     17.08366727	      0.15140666	     37.56151101	    -25.46420662	      1.65549923	     -6.60559083	      0.17451979	     16.32183318	      8.45422652	     29.72035757	    -17.56544801	     -2.02558973	     -7.77567465
      1.48500000	      6.64163498	     -0.70746808	      1.19698773	      0.09264429	      0.91016486	     -0.01144909	     20.13021982	      1.96329522	     -9.18027409	    -14.29010998	     16.78705034	      0.62330519	     37.90206737	    -26.02200826	      1.44388894	     -6.62939295	     -0.00105268	     16.40797783	      9.10407213	     30.13001972	    -17.61796048	     -1.98814286	     -8.11800342
      1.49000000	      6.82993830	     -0.74442205	      1.43868099	      0.10126275	      0.90930281	     -0.01123635	     19.62229258	      2.05515806	     -9.51742680	    -12.44693688	     16.32111265	      1.02180694	     39.32069974	    -26.70320962	      1.23077368	     -6.91484267	     -0.16714112	     16.23093527	      9.71204985	     31.62245403	    -17.75451508	     -1.91846881	     -8.26812214
      1.49500000	      6.97793378	     -0.69550817	      1.82398951	      0.10978740	      0.90839229	     -0.01114414	     19.17776726	      2.02185390	     -9.87937736	    -10.82563132	     16.08181017	      1.34770923	     39.45134040	    -27.26129636	      1.01369635	     -6.83598061	     -0.46660920	     16.30172392	     10.26974525	     31.91148977	    -17.86876080	     -1.91174528	     -8.63911011
      1.50000000	      7.24161407	     -0.72444294	      2.11061710	      0.11849848	      0.90761892	     -0.01095618	     18.61378092	      2.10326535	    -10.20662025	     -9.38205303	     15.79351912	      1.71883061	     39.74849275	    -27.95357416	      0.75880537	     -7.01769907	     -0.77442332	     16.23561607	     10.92076834	     32.53577994	    -18.08419815	     -1.83225872	     -8.80143497
      1.50500000	      7.44321497	     -0.76113974	      2.43491371	      0.12727749	      0.90678374	     -0.01077952	     18.13221052	      2.19104227	    -10.48740501	     -8.14914807	     15.54117318	      1.84004914	     40.02269694	    -28.52975036	      0.46489085	     -7.12352546	     -1.17098439	     16.18167473	     11.47719193	     33.31575107	    -18.22496784	     -1.73404800	     -9.05490453
      1.51000000	      7.63810768	     -0.80966685	      2.75199617	      0.13610954	      0.90595305	     -0.01060542	     17.68633921	      2.29336600	    -10.71199928	     -7.14779186	     15.31546391	      1.83212731	     40.27227585	    -29.06610955	      0.15146240	     -7.19729289	     -1.62616029	     16.08745114	     11.99200726	     34.29336949	    -18.35142367	     -1.61935946	     -9.26378307
      1.51500000	      7.83506269	     -0.87224557	      3.06416306	      0.14499434	      0.90515225	     -0.01041867	     17.26674030	      2.41461835	    -10.88505154	     -6.38085417	     15.12762915	      1.69376679	     40.48181005	    -29.56214316	     -0.18619990	     -7.25035552	     -2.15684689	     15.94131815	     12.45041117	     35.54382763	    -18.47508982	     -1.48725289	     -9.44789744
      1.52000000	      7.93977047	     -0.90437080	      3.38604850	      0.15390726	      0.90426214	     -0.01023828	     16.99521381	      2.49158002	    -11.00288325	     -5.88870515	     15.06755337	      1.44684753	     40.69749318	    -29.89979768	     -0.50853574	     -7.21915953	     -2.78375580	     15.70505500	     12.78613994	     37.47965740	    -18.49535943	     -1.38846671	     -9.68798070
      1.52500000	      8.12384176	     -1.01998580	      3.70160262	      0.16289789	      0.90351962	     -0.01008763	     16.63353013	      2.66782128	    -11.07477944	     -5.55014426	     14.91996600	      1.03198206	     40.63397516	    -30.29001111	     -0.91729117	     -7.20181790	     -3.48458524	     15.58127392	     13.11088005	     38.08294481	    -18.58972578	     -1.18484002	     -9.85180500
      1.53000000	      8.27385610	     -1.10527002	      4.00607472	      0.17187809	      0.90276868	     -0.00994177	     16.36741553	      2.80220783	    -11.12838518	     -5.49104749	     14.86086978	      0.64861595	     40.57195351	    -30.56785051	     -1.30531081	     -7.17012461	     -4.30765585	     15.33135634	     13.45932157	     40.11899077	    -18.64931003	     -1.01438711	     -9.97616528
      1.53500000	      8.42088951	     -1.26253101	      4.29782520	      0.18094913	      0.90203847	     -0.00980139	     16.11397329	      3.02252750	    -11.10361716	     -5.59483752	     14.76797795	      0.04680553	     40.44860020	    -30.79902622	     -1.76012623	     -7.13726779	     -5.21817391	     15.13316518	     13.66757657	     41.45322687	    -18.68809069	     -0.76079100	    -10.07892875
      1.54000000	      8.54346736	     -1.41568325	      4.58984626	      0.19004273	      0.90132672	     -0.00966631	     15.91414522	      3.23889033	    -11.02982944	     -5.88994162	     14.68488158	     -0.69412654	     40.30968930	    -30.95007696	     -2.22101238	     -7.04762324	     -6.21041771	     14.79223403	     13.87014305	     42.86802367	    -18.69849949	     -0.50800571	    -10.19371318
      1.54500000	      8.60591997	     -1.54559659	      4.87022264	      0.19907667	      0.90057708	     -0.00951641	     15.82983082	      3.42282512	    -10.91653214	     -6.40209750	     14.59295918	     -1.40593143	     40.17670981	    -30.94003030	     -2.66090559	     -6.89119174	     -7.36505025	     14.43344401	     13.98450547	     44.78894755	    -18.65073817	     -0.28671115	    -10.29310489
      1.55000000	      8.65719921	     -1.70802176	      5.14052762	      0.20811107	      0.89985313	     -0.00938014	     15.77924809	      3.63929880	    -10.79612560	     -7.05287772	     14.41561845	     -2.07603727	     40.07614029	    -30.83646510	     -3.13093838	     -6.72424897	     -8.66372064	     14.08983079	     14.01776458	     46.67869325	    -18.58781602	     -0.02473810	    -10.39441016
      1.55500000	      8.66402505	     -1.87452318	      5.37782483	      0.21711849	      0.89910011	     -0.00917431	     15.80719425	      3.87283484	    -10.57559780	     -7.84135750	     14.19632983	     -2.91710179	     39.99632533	    -30.61169786	     -3.59467585	     -6.51747827	    -10.08834334	     13.69937670	     14.04817574	     48.26173985	    -18.47871592	      0.22842379	    -10.44985720
